<svg width="393" height="99" viewBox="0 0 393 99" fill="none" xmlns="http://www.w3.org/2000/svg">
<path d="M68.5249 97.5693C67.5127 97.5519 66.5273 97.2436 65.6879 96.6815L54.029 89.232C52.7046 88.5979 51.2535 88.268 49.7832 88.267H23.7935C17.8178 88.2593 12.0889 85.8982 7.86344 81.7015C3.63793 77.5047 1.26064 71.8149 1.25293 65.8798V23.6046C1.26321 17.6712 3.64162 11.9838 7.86685 7.78916C12.0921 3.59449 17.8194 1.2347 23.7935 1.22705H64.5998C70.5679 1.24236 76.2868 3.60583 80.5042 7.79995C84.7215 11.9941 87.0938 17.6771 87.1015 23.6046V65.9184C87.0958 70.2032 85.8548 74.3968 83.5253 78.0032C81.1957 81.6097 77.8751 84.4782 73.9561 86.2695L72.8679 86.8775V92.8216C72.8484 95.9771 70.6818 97.5693 68.5249 97.5693ZM49.7638 84.6291C51.94 84.6289 54.0827 85.1625 56.0013 86.1827L67.6602 93.6226C67.9119 93.8086 68.212 93.9191 68.5249 93.941C69.0981 93.941 69.2148 93.3138 69.2148 92.783V87.0608C69.1438 86.4366 69.251 85.8052 69.5242 85.2387C69.7973 84.6722 70.2254 84.1934 70.7596 83.8571L72.3724 82.9597C75.672 81.4658 78.4701 79.0618 80.4337 76.0339C82.3973 73.0059 83.4437 69.4814 83.4484 65.8798V23.6046C83.4406 18.6343 81.4493 13.8698 77.9107 10.3553C74.3721 6.84081 69.5749 4.86299 64.5706 4.85533H23.7644C18.7634 4.86809 13.9713 6.84817 10.4369 10.3621C6.90247 13.8761 4.91376 18.6377 4.90607 23.6046V65.9184C4.91121 70.892 6.90277 75.6604 10.4437 79.1773C13.9847 82.6942 18.7858 84.6722 23.7935 84.6773L49.7638 84.6291Z" fill="white"/>
<path fill-rule="evenodd" clip-rule="evenodd" d="M68.5089 98.4782C67.3241 98.4579 66.1704 98.098 65.1865 97.4416L53.5836 90.0278C52.3958 89.4681 51.0975 89.177 49.7823 89.1761H23.7932C17.5763 89.1681 11.6146 86.7117 7.21801 82.345C2.82131 77.9782 0.347382 72.0575 0.339356 65.8812L0.339355 23.6048C0.350057 17.4302 2.82515 11.5105 7.22156 7.1459C11.6179 2.78135 17.5768 0.326323 23.7921 0.31836L64.5995 0.318359C70.8086 0.334292 76.7612 2.79319 81.1494 7.15724C85.5378 11.5214 88.0065 17.4351 88.0145 23.6036V65.9186C88.0086 70.3774 86.7172 74.7423 84.2932 78.4949C81.876 82.2371 78.4335 85.2154 74.3709 87.0801L73.7809 87.4097V92.8274C73.7698 94.6223 73.1417 96.0495 72.1364 97.0285C71.1408 97.9982 69.8256 98.4783 68.5246 98.4783L68.5089 98.4782ZM72.8676 86.8777L73.9558 86.2697C77.8748 84.4784 81.1955 81.6099 83.525 78.0034C85.8545 74.397 87.0955 70.2034 87.1012 65.9186V23.6048C87.0935 17.6773 84.7213 11.9943 80.5039 7.80015C76.2865 3.60603 70.5676 1.24256 64.5995 1.22725H23.7932C17.8192 1.2349 12.0918 3.59469 7.86656 7.78936C3.64132 11.984 1.26292 17.6714 1.25264 23.6048V65.88C1.26035 71.8151 3.63764 77.5049 7.86315 81.7017C12.0887 85.8984 17.8175 88.2596 23.7932 88.2672H49.7829C51.2532 88.2683 52.7043 88.5981 54.0287 89.2322L65.6876 96.6817C66.527 97.2438 67.5124 97.5521 68.5246 97.5695C70.6815 97.5695 72.8482 95.9773 72.8676 92.8218V86.8777ZM49.7634 83.7204C52.0898 83.7202 54.3802 84.2906 56.4314 85.3812L56.4634 85.3983L68.1793 92.8745L68.2044 92.8931C68.2334 92.9145 68.2638 92.9336 68.2953 92.9504C68.2992 92.8986 68.3012 92.8426 68.3012 92.7832V87.1092C68.223 86.3329 68.361 85.5498 68.7005 84.8457C69.0479 84.1253 69.5922 83.5167 70.2709 83.0893L70.2919 83.0761L71.9595 82.1482L71.9939 82.1326C75.1345 80.7107 77.7975 78.4227 79.6661 75.5412C81.5347 72.6597 82.5303 69.3059 82.5348 65.8788V23.6062C82.5275 18.8771 80.6327 14.3434 77.2653 10.9989C73.8979 7.65444 69.3326 5.77193 64.5698 5.76442H23.7652C19.0057 5.77689 14.4453 7.66153 11.082 11.0053C7.71873 14.3492 5.82655 18.8799 5.81906 23.6056V65.9183C5.82412 70.6503 7.71902 75.1875 11.0886 78.5342C14.4584 81.881 19.0278 83.7638 23.7942 83.7686L49.7634 83.7204ZM23.7932 84.6775C18.7856 84.6724 13.9844 82.6944 10.4435 79.1775C6.90248 75.6606 4.91092 70.8922 4.90578 65.9186V23.6048C4.91347 18.6379 6.90218 13.8763 10.4366 10.3623C13.971 6.84836 18.7631 4.86829 23.7641 4.85553H64.5703C69.5747 4.86319 74.3718 6.84101 77.9104 10.3555C81.449 13.87 83.4404 18.6345 83.4481 23.6048V65.88C83.4434 69.4816 82.397 73.0061 80.4334 76.0341C78.4698 79.062 75.6718 81.466 72.3721 82.9599L70.7593 83.8573C70.2252 84.1936 69.797 84.6724 69.5239 85.2389C69.2507 85.8054 69.1435 86.4368 69.2145 87.061V92.7832C69.2145 93.314 69.0979 93.9412 68.5246 93.9412C68.2117 93.9193 67.9116 93.8088 67.6599 93.6228L56.001 86.1829C54.0824 85.1627 51.9397 84.6291 49.7635 84.6293L23.7932 84.6775Z" fill="white"/>
<path d="M196.622 56.7007L196.65 56.731L196.681 56.7592C197.622 57.6323 198.788 58.0567 200.097 58.0567C201.436 58.0567 202.626 57.6419 203.544 56.7305L203.558 56.7159L203.572 56.7007C204.451 55.7653 204.878 54.6069 204.878 53.3058V33.6733C204.878 32.1863 205.278 30.9261 206.054 29.8457L206.06 29.8376L206.066 29.8295C206.875 28.6633 207.974 27.725 209.395 27.0192C210.798 26.3219 212.385 25.9624 214.18 25.9624C217.101 25.9624 219.442 26.8082 221.294 28.4439L221.305 28.4533L221.315 28.4623C223.096 29.9625 224.112 32.437 224.112 36.1795V53.3058C224.112 54.6069 224.539 55.7653 225.417 56.7007L225.446 56.731L225.476 56.7592C226.418 57.6323 227.583 58.0567 228.893 58.0567C230.202 58.0567 231.362 57.6314 232.269 56.7305C233.205 55.8001 233.674 54.6321 233.674 53.3058V36.1795C233.674 32.1792 232.898 28.7181 231.281 25.8524C229.727 23.0158 227.555 20.8501 224.774 19.39C222.054 17.8917 218.98 17.1567 215.581 17.1567C213.053 17.1567 210.678 17.6006 208.468 18.4993C207.065 19.0692 205.787 19.7749 204.636 20.6183C204.422 19.9505 204.063 19.3472 203.544 18.8311C202.626 17.9197 201.436 17.5048 200.097 17.5048C198.788 17.5048 197.622 17.9293 196.681 18.8023L196.665 18.8164L196.651 18.8311C195.733 19.7425 195.316 20.9255 195.316 22.2557V53.3058C195.316 54.6069 195.743 55.7653 196.622 56.7007Z" fill="white"/>
<path fill-rule="evenodd" clip-rule="evenodd" d="M159.419 55.4747L159.428 55.4801L159.438 55.4853C162.674 57.2093 166.335 58.0567 170.39 58.0567C172.69 58.0567 175.065 57.6363 177.508 56.8147C179.991 55.9958 182.107 54.9214 183.827 53.5713C184.866 52.7818 185.486 51.713 185.413 50.4109C185.344 49.1811 184.715 48.1386 183.743 47.2906L183.734 47.2824L183.724 47.2744C182.874 46.5627 181.853 46.2436 180.736 46.2977C179.672 46.3049 178.689 46.6547 177.81 47.2923L177.805 47.2961L177.8 47.3C176.992 47.8997 175.873 48.4737 174.405 49.0025C173.028 49.4699 171.691 49.6973 170.39 49.6973C167.086 49.6973 164.351 48.7801 162.115 46.9889C160.277 45.4466 159.047 43.5497 158.419 41.2661H183.574C184.771 41.2661 185.848 40.9022 186.709 40.1162L186.726 40.1L186.744 40.0831C187.586 39.2492 188.009 38.2012 188.009 37.017C188.009 33.2145 187.28 29.8143 185.783 26.8483C184.331 23.8304 182.189 21.4584 179.37 19.7629C176.528 18.0078 173.167 17.1567 169.338 17.1567C165.457 17.1567 161.97 18.0333 158.912 19.8168C155.868 21.5467 153.471 23.972 151.731 27.0693L151.728 27.0751C150.026 30.1456 149.195 33.6798 149.195 37.6414C149.195 41.5715 150.08 45.1109 151.879 48.2261L151.884 48.2359L151.89 48.2456C153.73 51.2958 156.246 53.709 159.419 55.4747ZM176.037 28.059L176.042 28.0642L176.047 28.0694C177.428 29.4703 178.384 31.2088 178.893 33.3229H158.523C159.151 31.2005 160.249 29.4537 161.808 28.0489C163.643 26.3944 166.112 25.5162 169.338 25.5162C172.249 25.5162 174.434 26.3944 176.037 28.059Z" fill="white"/>
<path d="M111.964 50.1845L111.961 50.1886C111.335 51.0122 111.084 52.0329 111.084 53.1339C111.084 54.4085 111.408 55.5847 112.268 56.4338C113.128 57.2828 114.32 57.6023 115.611 57.6023H139.643C140.935 57.6023 142.126 57.2828 142.987 56.4338C143.847 55.5847 144.171 54.4085 144.171 53.1339C144.171 51.8594 143.847 50.6832 142.987 49.8341C142.126 48.985 140.935 48.6656 139.643 48.6656H124.181L142.587 24.5729L142.589 24.5704C143.215 23.7468 143.466 22.7261 143.466 21.6251C143.466 20.3505 143.142 19.1743 142.282 18.3253C141.422 17.4762 140.23 17.1567 138.939 17.1567H116.733C115.442 17.1567 114.25 17.4762 113.39 18.3253C112.529 19.1743 112.206 20.3505 112.206 21.6251C112.206 22.8997 112.529 24.0759 113.39 24.9249C114.25 25.774 115.442 26.0935 116.733 26.0935H130.435L111.964 50.1845Z" fill="white"/>
<path d="M320.251 58.0567C316.713 58.0567 313.548 57.3486 310.757 55.9323C307.966 54.4672 305.749 52.3427 304.104 49.5589C302.509 46.7752 301.712 43.381 301.712 39.3763V20.3378C301.712 19.5564 301.986 18.8971 302.534 18.3599C303.082 17.8227 303.755 17.5541 304.553 17.5541C305.4 17.5541 306.098 17.8227 306.646 18.3599C307.194 18.8971 307.468 19.5564 307.468 20.3378V39.3763C307.468 43.8693 308.739 47.2147 311.281 49.4124C313.822 51.6101 317.012 52.709 320.849 52.709C323.291 52.709 325.484 52.245 327.428 51.3171C329.421 50.3892 330.991 49.1194 332.138 47.5078C333.284 45.8961 333.857 44.0647 333.857 42.0135V19.9405C333.857 19.1103 334.106 18.4509 334.605 17.9626C335.153 17.4253 335.85 17.1567 336.698 17.1567C337.545 17.1567 338.243 17.4253 338.791 17.9626C339.339 18.4509 339.613 19.1103 339.613 19.9405V54.9825C339.613 55.8615 339.339 56.5697 338.791 57.1069C338.243 57.5953 337.545 57.8395 336.698 57.8395C335.85 57.8395 335.153 57.5953 334.605 57.1069C334.106 56.5697 333.857 55.8615 333.857 54.9825V52.2694C332.212 54.0764 330.219 55.4927 327.876 56.5183C325.534 57.5439 322.992 58.0567 320.251 58.0567Z" fill="white"/>
<path d="M293.871 58.0569C290.982 58.0569 288.598 56.8838 286.721 54.5377C284.843 52.1427 283.904 49.0878 283.904 45.3732V3.58289C283.904 2.75197 284.145 2.09213 284.626 1.60335C285.156 1.0657 285.83 0.796875 286.648 0.796875C287.467 0.796875 288.117 1.0657 288.598 1.60335C289.128 2.09213 289.393 2.75197 289.393 3.58289V45.3732C289.393 47.4749 289.802 49.1856 290.621 50.5053C291.487 51.825 292.571 52.4848 293.871 52.4848H295.676C296.399 52.4848 296.976 52.7537 297.41 53.2913C297.843 53.7801 298.06 54.4399 298.06 55.2709C298.06 56.1018 297.747 56.7861 297.121 57.3237C296.543 57.8125 295.773 58.0569 294.81 58.0569H293.871Z" fill="white"/>
<path d="M248.336 57.7396C247.504 57.7396 246.818 57.4947 246.28 57.0047C245.79 56.4658 245.545 55.7798 245.545 54.9469V3.13452C245.545 2.3016 245.79 1.64017 246.28 1.15022C246.818 0.61127 247.504 0.341797 248.336 0.341797C249.168 0.341797 249.829 0.61127 250.318 1.15022C250.857 1.64017 251.126 2.3016 251.126 3.13452V36.5737L271.833 17.8331C273.106 16.7062 274.305 16.7552 275.431 17.9801C275.97 18.568 276.214 19.2049 276.165 19.8909C276.165 20.5278 275.872 21.0913 275.284 21.5812L260.598 34.8834L275.872 53.6975C276.949 55.0204 276.826 56.2453 275.505 57.3722C274.868 57.9111 274.207 58.1316 273.522 58.0336C272.837 57.9846 272.249 57.6417 271.76 57.0047L256.633 38.411L251.126 43.482V54.9469C251.126 55.7798 250.857 56.4658 250.318 57.0047C249.829 57.4947 249.168 57.7396 248.336 57.7396Z" fill="white"/>
<path fill-rule="evenodd" clip-rule="evenodd" d="M359.257 55.4128C362.361 57.1751 365.835 58.0562 369.679 58.0562C373.621 58.0562 377.145 57.1751 380.249 55.4128C383.354 53.6016 385.793 51.154 387.567 48.07C389.39 44.986 390.302 41.486 390.302 37.5698C390.302 33.7026 389.415 30.227 387.641 27.143C385.916 24.059 383.551 21.6359 380.545 19.8736C377.539 18.0624 374.139 17.1568 370.344 17.1568C367.043 17.1568 364.037 17.8666 361.326 19.2862C358.665 20.6569 356.522 22.4926 354.896 24.7933V3.20549C354.896 2.32435 354.625 1.63902 354.083 1.1495C353.59 0.611033 352.925 0.341797 352.087 0.341797C351.2 0.341797 350.485 0.611033 349.943 1.1495C349.45 1.63902 349.204 2.32435 349.204 3.20549V54.9779C349.204 55.859 349.475 56.5443 350.017 57.0339C350.51 57.5723 351.175 57.8416 352.013 57.8416C352.9 57.8416 353.614 57.5723 354.157 57.0339C354.649 56.5443 354.896 55.859 354.896 54.9779L354.896 52.0518C356.174 53.353 357.628 54.4733 359.257 55.4128ZM377.366 50.9337C375.1 52.2554 372.537 52.9163 369.679 52.9163C366.87 52.9163 364.332 52.2554 362.066 50.9337C359.799 49.563 358.025 47.7273 356.744 45.4266C355.462 43.1259 354.822 40.5069 354.822 37.5698C354.822 34.6816 355.462 32.0872 356.744 29.7864C358.025 27.4367 359.799 25.601 362.066 24.2793C364.332 22.9576 366.87 22.2968 369.679 22.2968C372.537 22.2968 375.1 22.9576 377.366 24.2793C379.633 25.601 381.407 27.4367 382.688 29.7864C384.019 32.0872 384.684 34.6816 384.684 37.5698C384.684 40.5069 384.019 43.1259 382.688 45.4266C381.407 47.7273 379.633 49.563 377.366 50.9337Z" fill="white"/>
<path d="M26.0318 60.2715L26.0282 60.2763C25.294 61.2387 24.999 62.4314 24.999 63.718C24.999 65.2074 25.3787 66.5818 26.388 67.574C27.3972 68.5662 28.7952 68.9395 30.3102 68.9395H58.5024C60.0173 68.9395 61.4154 68.5662 62.4246 67.574C63.4338 66.5818 63.8135 65.2074 63.8135 63.718C63.8135 62.2286 63.4338 60.8542 62.4246 59.862C61.4154 58.8698 60.0173 58.4965 58.5024 58.4965H40.3629L61.9554 30.3433L61.9576 30.3404C62.6918 29.3781 62.9868 28.1853 62.9868 26.8987C62.9868 25.4093 62.6071 24.0349 61.5979 23.0427C60.5886 22.0505 59.1906 21.6772 57.6756 21.6772H31.6262C30.1112 21.6772 28.7132 22.0505 27.704 23.0427C26.6948 24.0349 26.315 25.4093 26.315 26.8987C26.315 28.3881 26.6948 29.7625 27.704 30.7547C28.7132 31.7469 30.1112 32.1202 31.6262 32.1202H47.6994L26.0318 60.2715Z" fill="white"/>
<path d="M116.456 93.0704C114.823 93.0704 113.568 92.5374 112.691 91.4714C111.814 90.4053 111.376 88.8665 111.376 86.8549V78.8598H113.852V87.3449C113.852 88.4281 114.144 89.2792 114.729 89.8981C115.313 90.4999 116.104 90.8008 117.101 90.8008C118.133 90.8008 118.975 90.4741 119.629 89.8208C120.282 89.1502 120.609 88.2389 120.609 87.087V78.8598H123.085V92.6577H121.125V86.7517H121.434C121.434 88.11 121.254 89.262 120.892 90.2076C120.531 91.1361 119.99 91.8496 119.268 92.3482C118.563 92.8297 117.66 93.0704 116.56 93.0704H116.456ZM127.88 92.6577V78.8856H129.84V84.7916H129.53C129.53 83.4505 129.702 82.3157 130.046 81.3873C130.407 80.4416 130.94 79.7195 131.645 79.2209C132.35 78.7222 133.244 78.4729 134.327 78.4729H134.431C135.514 78.4729 136.408 78.7222 137.113 79.2209C137.835 79.7195 138.368 80.4416 138.712 81.3873C139.056 82.3157 139.228 83.4505 139.228 84.7916H138.506C138.506 83.4505 138.686 82.3157 139.047 81.3873C139.408 80.4416 139.941 79.7195 140.646 79.2209C141.368 78.7222 142.271 78.4729 143.354 78.4729H143.457C144.541 78.4729 145.443 78.7222 146.165 79.2209C146.887 79.7195 147.42 80.4416 147.764 81.3873C148.125 82.3157 148.306 83.4505 148.306 84.7916V92.6577H145.83V84.25C145.83 83.1324 145.555 82.2727 145.005 81.671C144.455 81.052 143.689 80.7425 142.709 80.7425C141.695 80.7425 140.878 81.0692 140.259 81.7225C139.64 82.3587 139.331 83.2528 139.331 84.4048V92.6577H136.855V84.25C136.855 83.1324 136.58 82.2727 136.03 81.671C135.479 81.052 134.714 80.7425 133.734 80.7425C132.72 80.7425 131.903 81.0692 131.284 81.7225C130.665 82.3587 130.356 83.2528 130.356 84.4048V92.6577H127.88ZM161.17 92.6577V88.5312H160.757V83.76C160.757 82.8143 160.508 82.1008 160.009 81.6194C159.528 81.138 158.814 80.8972 157.868 80.8972C157.335 80.8972 156.785 80.9058 156.218 80.923C155.65 80.9402 155.109 80.9574 154.593 80.9746C154.077 80.9918 153.63 81.0176 153.252 81.052V78.8856C153.63 78.8512 154.026 78.8254 154.438 78.8082C154.868 78.7738 155.307 78.7566 155.754 78.7566C156.201 78.7394 156.63 78.7308 157.043 78.7308C158.453 78.7308 159.605 78.9028 160.499 79.2466C161.393 79.5733 162.055 80.1149 162.485 80.8715C162.915 81.628 163.13 82.651 163.13 83.9405V92.6577H161.17ZM156.656 93.0188C155.625 93.0188 154.731 92.8468 153.974 92.503C153.235 92.1419 152.659 91.6261 152.246 90.9555C151.851 90.285 151.653 89.4769 151.653 88.5312C151.653 87.5512 151.868 86.7345 152.298 86.0811C152.745 85.4278 153.389 84.9378 154.232 84.6111C155.074 84.2672 156.089 84.0953 157.275 84.0953H161.015V85.9522H157.172C156.175 85.9522 155.41 86.1929 154.877 86.6743C154.344 87.1557 154.077 87.7747 154.077 88.5312C154.077 89.2878 154.344 89.8981 154.877 90.3624C155.41 90.8266 156.175 91.0587 157.172 91.0587C157.757 91.0587 158.315 90.9555 158.848 90.7492C159.381 90.5257 159.82 90.1646 160.164 89.666C160.525 89.1502 160.723 88.4453 160.757 87.5512L161.427 88.5312C161.341 89.5113 161.101 90.3366 160.705 91.0071C160.327 91.6605 159.794 92.1591 159.106 92.503C158.436 92.8468 157.619 93.0188 156.656 93.0188ZM179.397 93.1219C178.193 93.1219 177.153 92.9156 176.276 92.503C175.399 92.0903 174.686 91.5487 174.135 90.8782C173.585 90.1904 173.172 89.4253 172.897 88.5828C172.639 87.7403 172.511 86.8806 172.511 86.0038V85.5395C172.511 84.6455 172.639 83.7772 172.897 82.9347C173.172 82.0922 173.585 81.3357 174.135 80.6651C174.686 79.9774 175.382 79.4358 176.224 79.0403C177.084 78.6277 178.09 78.4214 179.242 78.4214C180.738 78.4214 181.967 78.748 182.93 79.4014C183.91 80.0376 184.632 80.8629 185.096 81.8773C185.578 82.8917 185.818 83.9749 185.818 85.1269V86.2359H173.594V84.379H184.013L183.446 85.3848C183.446 84.4048 183.291 83.5623 182.981 82.8573C182.672 82.1352 182.208 81.5764 181.589 81.1809C180.97 80.7855 180.188 80.5878 179.242 80.5878C178.262 80.5878 177.445 80.8113 176.792 81.2583C176.156 81.7053 175.674 82.3157 175.347 83.0894C175.038 83.8632 174.883 84.7572 174.883 85.7716C174.883 86.7517 175.038 87.6372 175.347 88.4281C175.674 89.2018 176.173 89.8208 176.843 90.285C177.514 90.732 178.365 90.9555 179.397 90.9555C180.48 90.9555 181.357 90.7148 182.027 90.2334C182.715 89.752 183.128 89.1932 183.265 88.557H185.586C185.397 89.5027 185.019 90.3194 184.452 91.0071C183.884 91.6949 183.171 92.2193 182.311 92.5803C181.451 92.9414 180.48 93.1219 179.397 93.1219ZM189.334 92.6577V78.8856H191.294V84.7916H190.984C190.984 83.4505 191.156 82.3157 191.5 81.3873C191.861 80.4416 192.394 79.7195 193.099 79.2209C193.804 78.7222 194.698 78.4729 195.781 78.4729H195.885C196.968 78.4729 197.862 78.7222 198.567 79.2209C199.289 79.7195 199.822 80.4416 200.166 81.3873C200.51 82.3157 200.682 83.4505 200.682 84.7916H199.959C199.959 83.4505 200.14 82.3157 200.501 81.3873C200.862 80.4416 201.395 79.7195 202.1 79.2209C202.822 78.7222 203.725 78.4729 204.808 78.4729H204.911C205.994 78.4729 206.897 78.7222 207.619 79.2209C208.341 79.7195 208.874 80.4416 209.218 81.3873C209.579 82.3157 209.76 83.4505 209.76 84.7916V92.6577H207.284V84.25C207.284 83.1324 207.009 82.2727 206.459 81.671C205.909 81.052 205.143 80.7425 204.163 80.7425C203.149 80.7425 202.332 81.0692 201.713 81.7225C201.094 82.3587 200.785 83.2528 200.785 84.4048V92.6577H198.309V84.25C198.309 83.1324 198.034 82.2727 197.484 81.671C196.933 81.052 196.168 80.7425 195.188 80.7425C194.174 80.7425 193.357 81.0692 192.738 81.7225C192.119 82.3587 191.81 83.2528 191.81 84.4048V92.6577H189.334ZM214.293 97.8158V78.8856H216.253V84.8432L215.789 84.7916C215.875 83.313 216.184 82.1094 216.717 81.1809C217.268 80.2353 217.981 79.5389 218.858 79.0919C219.735 78.6449 220.689 78.4214 221.721 78.4214C222.718 78.4214 223.621 78.6105 224.429 78.9887C225.254 79.367 225.959 79.8828 226.544 80.5362C227.128 81.1895 227.575 81.9461 227.885 82.8057C228.194 83.6654 228.349 84.5767 228.349 85.5395V86.0038C228.349 86.9666 228.186 87.8779 227.859 88.7376C227.532 89.5972 227.068 90.3538 226.466 91.0071C225.882 91.6605 225.177 92.1763 224.351 92.5546C223.543 92.9328 222.649 93.1219 221.669 93.1219C220.689 93.1219 219.752 92.907 218.858 92.4772C217.964 92.0473 217.225 91.351 216.64 90.3881C216.056 89.4253 215.72 88.1616 215.634 86.5969L216.769 88.6602V97.8158H214.293ZM221.282 90.9555C222.211 90.9555 223.019 90.7406 223.707 90.3108C224.394 89.8637 224.927 89.2534 225.306 88.4797C225.684 87.6887 225.873 86.7861 225.873 85.7716C225.873 84.74 225.684 83.8374 225.306 83.0636C224.927 82.2899 224.394 81.6882 223.707 81.2583C223.019 80.8113 222.211 80.5878 221.282 80.5878C220.457 80.5878 219.692 80.7769 218.987 81.1551C218.282 81.5162 217.715 82.0492 217.285 82.7542C216.872 83.4419 216.666 84.2758 216.666 85.2558V86.4422C216.666 87.3879 216.881 88.196 217.311 88.8665C217.74 89.5371 218.308 90.0529 219.013 90.4139C219.718 90.775 220.474 90.9555 221.282 90.9555ZM232.075 92.6577V78.8856H234.035V84.5595H233.931C233.931 82.5478 234.37 81.0778 235.247 80.1493C236.141 79.2037 237.473 78.7308 239.244 78.7308H239.709V80.9488H238.832C237.456 80.9488 236.399 81.3185 235.659 82.0578C234.92 82.7799 234.55 83.8288 234.55 85.2043V92.6577H232.075ZM248.356 93.1219C247.152 93.1219 246.112 92.9156 245.235 92.503C244.358 92.0903 243.645 91.5487 243.095 90.8782C242.545 90.1904 242.132 89.4253 241.857 88.5828C241.599 87.7403 241.47 86.8806 241.47 86.0038V85.5395C241.47 84.6455 241.599 83.7772 241.857 82.9347C242.132 82.0922 242.545 81.3357 243.095 80.6651C243.645 79.9774 244.341 79.4358 245.184 79.0403C246.043 78.6277 247.049 78.4214 248.201 78.4214C249.697 78.4214 250.926 78.748 251.889 79.4014C252.869 80.0376 253.591 80.8629 254.056 81.8773C254.537 82.8917 254.778 83.9749 254.778 85.1269V86.2359H242.553V84.379H252.972L252.405 85.3848C252.405 84.4048 252.25 83.5623 251.941 82.8573C251.631 82.1352 251.167 81.5764 250.548 81.1809C249.929 80.7855 249.147 80.5878 248.201 80.5878C247.221 80.5878 246.405 80.8113 245.751 81.2583C245.115 81.7053 244.634 82.3157 244.307 83.0894C243.997 83.8632 243.843 84.7572 243.843 85.7716C243.843 86.7517 243.997 87.6372 244.307 88.4281C244.634 89.2018 245.132 89.8208 245.803 90.285C246.473 90.732 247.324 90.9555 248.356 90.9555C249.439 90.9555 250.316 90.7148 250.987 90.2334C251.674 89.752 252.087 89.1932 252.225 88.557H254.546C254.357 89.5027 253.978 90.3194 253.411 91.0071C252.844 91.6949 252.13 92.2193 251.27 92.5803C250.411 92.9414 249.439 93.1219 248.356 93.1219ZM262.807 93.0704C261.001 93.0704 259.6 92.6835 258.603 91.9098C257.623 91.1361 257.115 90.0787 257.081 88.7376H259.402C259.437 89.2706 259.703 89.7778 260.202 90.2592C260.717 90.7234 261.586 90.9555 262.807 90.9555C263.907 90.9555 264.749 90.7406 265.334 90.3108C265.919 89.8637 266.211 89.3221 266.211 88.686C266.211 88.1186 265.996 87.6801 265.566 87.3707C265.136 87.044 264.44 86.8291 263.477 86.7259L261.981 86.5712C260.675 86.4336 259.608 86.0467 258.783 85.4106C257.958 84.7572 257.545 83.846 257.545 82.6768C257.545 81.7999 257.769 81.052 258.216 80.433C258.663 79.7968 259.282 79.3154 260.073 78.9887C260.864 78.6449 261.775 78.4729 262.807 78.4729C264.354 78.4729 265.609 78.8168 266.572 79.5046C267.535 80.1923 268.033 81.2153 268.068 82.5736H265.747C265.729 82.0234 265.472 81.5592 264.973 81.1809C264.492 80.7855 263.769 80.5878 262.807 80.5878C261.844 80.5878 261.113 80.7855 260.614 81.1809C260.116 81.5764 259.866 82.075 259.866 82.6768C259.866 83.1926 260.038 83.6052 260.382 83.9147C260.743 84.2242 261.328 84.4219 262.136 84.5079L263.632 84.6627C265.11 84.8174 266.297 85.23 267.191 85.9006C268.085 86.554 268.532 87.4824 268.532 88.686C268.532 89.5457 268.283 90.3108 267.784 90.9813C267.303 91.6347 266.632 92.1505 265.772 92.5288C264.913 92.8898 263.924 93.0704 262.807 93.0704ZM280.451 92.6577V88.5312H280.038V83.76C280.038 82.8143 279.789 82.1008 279.29 81.6194C278.809 81.138 278.095 80.8972 277.149 80.8972C276.616 80.8972 276.066 80.9058 275.499 80.923C274.931 80.9402 274.39 80.9574 273.874 80.9746C273.358 80.9918 272.911 81.0176 272.533 81.052V78.8856C272.911 78.8512 273.307 78.8254 273.719 78.8082C274.149 78.7738 274.588 78.7566 275.035 78.7566C275.482 78.7394 275.912 78.7308 276.324 78.7308C277.734 78.7308 278.886 78.9028 279.78 79.2466C280.674 79.5733 281.336 80.1149 281.766 80.8715C282.196 81.628 282.411 82.651 282.411 83.9405V92.6577H280.451ZM275.937 93.0188C274.906 93.0188 274.012 92.8468 273.255 92.503C272.516 92.1419 271.94 91.6261 271.527 90.9555C271.132 90.285 270.934 89.4769 270.934 88.5312C270.934 87.5512 271.149 86.7345 271.579 86.0811C272.026 85.4278 272.671 84.9378 273.513 84.6111C274.356 84.2672 275.37 84.0953 276.556 84.0953H280.296V85.9522H276.453C275.456 85.9522 274.691 86.1929 274.158 86.6743C273.625 87.1557 273.358 87.7747 273.358 88.5312C273.358 89.2878 273.625 89.8981 274.158 90.3624C274.691 90.8266 275.456 91.0587 276.453 91.0587C277.038 91.0587 277.597 90.9555 278.13 90.7492C278.663 90.5257 279.101 90.1646 279.445 89.666C279.806 89.1502 280.004 88.4453 280.038 87.5512L280.709 88.5312C280.623 89.5113 280.382 90.3366 279.986 91.0071C279.608 91.6605 279.075 92.1591 278.387 92.503C277.717 92.8468 276.9 93.0188 275.937 93.0188ZM301.205 93.1477C299.503 93.1477 298.042 92.8554 296.821 92.2709C295.6 91.6691 294.603 90.8868 293.829 89.9239C293.055 88.9439 292.479 87.8951 292.101 86.7775C291.74 85.6427 291.56 84.5423 291.56 83.4763V82.9089C291.56 81.7397 291.749 80.5878 292.127 79.453C292.505 78.301 293.081 77.2608 293.855 76.3323C294.646 75.4039 295.634 74.6645 296.821 74.1143C298.024 73.5469 299.443 73.2633 301.076 73.2633C302.778 73.2633 304.283 73.5813 305.59 74.2175C306.896 74.8537 307.936 75.7391 308.71 76.8739C309.501 77.9915 309.965 79.3068 310.103 80.8199H305.847C305.727 80.0633 305.452 79.4186 305.022 78.8856C304.592 78.3526 304.034 77.9399 303.346 77.6476C302.675 77.3553 301.919 77.2092 301.076 77.2092C300.234 77.2092 299.486 77.3553 298.832 77.6476C298.179 77.9399 297.629 78.3526 297.182 78.8856C296.752 79.4186 296.417 80.0548 296.176 80.7941C295.953 81.5162 295.841 82.3243 295.841 83.2184C295.841 84.0953 295.953 84.9034 296.176 85.6427C296.417 86.3648 296.761 87.001 297.208 87.5512C297.672 88.0842 298.239 88.4968 298.91 88.7891C299.58 89.0642 300.345 89.2018 301.205 89.2018C302.512 89.2018 303.612 88.8837 304.506 88.2475C305.418 87.6114 305.968 86.7345 306.157 85.6169H310.387C310.232 86.9924 309.768 88.2561 308.994 89.4081C308.237 90.5429 307.197 91.4542 305.873 92.1419C304.567 92.8125 303.011 93.1477 301.205 93.1477ZM319.847 93.1477C318.609 93.1477 317.508 92.9586 316.545 92.5803C315.583 92.1849 314.766 91.6519 314.095 90.9813C313.442 90.3108 312.943 89.5457 312.6 88.686C312.256 87.8091 312.084 86.8892 312.084 85.9264V85.3332C312.084 84.3532 312.256 83.4247 312.6 82.5478C312.961 81.6538 313.476 80.8715 314.147 80.2009C314.835 79.5303 315.66 79.0059 316.623 78.6277C317.586 78.2322 318.66 78.0345 319.847 78.0345C321.067 78.0345 322.151 78.2322 323.096 78.6277C324.059 79.0059 324.876 79.5303 325.546 80.2009C326.217 80.8715 326.733 81.6538 327.094 82.5478C327.455 83.4247 327.635 84.3532 327.635 85.3332V85.9264C327.635 86.8892 327.463 87.8091 327.12 88.686C326.776 89.5457 326.269 90.3108 325.598 90.9813C324.945 91.6519 324.136 92.1849 323.174 92.5803C322.211 92.9586 321.102 93.1477 319.847 93.1477ZM319.847 89.666C320.655 89.666 321.325 89.4941 321.858 89.1502C322.391 88.8063 322.795 88.3249 323.07 87.7059C323.363 87.087 323.509 86.3992 323.509 85.6427C323.509 84.8346 323.363 84.1297 323.07 83.5279C322.778 82.9089 322.357 82.4189 321.807 82.0578C321.274 81.6967 320.62 81.5162 319.847 81.5162C319.09 81.5162 318.437 81.6967 317.887 82.0578C317.336 82.4189 316.915 82.9089 316.623 83.5279C316.348 84.1297 316.21 84.8346 316.21 85.6427C316.21 86.3992 316.348 87.087 316.623 87.7059C316.898 88.3249 317.311 88.8063 317.861 89.1502C318.411 89.4941 319.073 89.666 319.847 89.666ZM330.515 92.6577V78.5245H333.791V84.5853H333.559C333.559 83.141 333.739 81.9375 334.1 80.9746C334.478 80.0118 335.046 79.2896 335.802 78.8082C336.559 78.3268 337.479 78.0861 338.562 78.0861H338.742C340.393 78.0861 341.648 78.6277 342.508 79.7109C343.385 80.7769 343.823 82.4017 343.823 84.5853V92.6577H339.697V84.3532C339.697 83.5966 339.473 82.9777 339.026 82.4963C338.579 82.0148 337.977 81.7741 337.221 81.7741C336.447 81.7741 335.82 82.0234 335.338 82.522C334.874 83.0035 334.642 83.6396 334.642 84.4305V92.6577H330.515ZM353.813 93.1477C352.609 93.1477 351.543 92.9414 350.615 92.5288C349.704 92.1161 348.939 91.5659 348.32 90.8782C347.718 90.1732 347.254 89.3909 346.927 88.5312C346.617 87.6544 346.463 86.7603 346.463 85.849V85.3332C346.463 84.3876 346.617 83.4849 346.927 82.6252C347.254 81.7483 347.718 80.966 348.32 80.2783C348.921 79.5905 349.669 79.0489 350.563 78.6535C351.475 78.2408 352.506 78.0345 353.658 78.0345C355.171 78.0345 356.444 78.3784 357.475 79.0661C358.524 79.7367 359.324 80.6221 359.874 81.7225C360.424 82.8057 360.699 83.9921 360.699 85.2816V86.6743H348.191V84.3274H358.197L356.856 85.4106C356.856 84.5681 356.736 83.846 356.495 83.2442C356.254 82.6424 355.893 82.1868 355.412 81.8773C354.948 81.5506 354.363 81.3873 353.658 81.3873C352.936 81.3873 352.326 81.5506 351.827 81.8773C351.328 82.204 350.95 82.6854 350.692 83.3216C350.434 83.9405 350.305 84.7056 350.305 85.6169C350.305 86.4594 350.426 87.1987 350.667 87.8349C350.907 88.4539 351.286 88.9353 351.801 89.2792C352.317 89.623 352.988 89.795 353.813 89.795C354.569 89.795 355.188 89.6488 355.67 89.3565C356.151 89.0642 356.478 88.7032 356.65 88.2733H360.441C360.235 89.219 359.831 90.0615 359.229 90.8008C358.627 91.5401 357.871 92.1161 356.959 92.5288C356.048 92.9414 354.999 93.1477 353.813 93.1477ZM361.785 92.6577L366.169 85.0753L366.066 85.7201L361.939 78.5245H366.401L368.954 83.3216H369.367L371.766 78.5245H375.969L372.023 85.7716L372.127 85.23L376.769 92.6577H372.281L369.238 87.5254H368.825L365.963 92.6577H361.785ZM387.132 92.6577V88.4797H386.436V83.9405C386.436 83.2184 386.264 82.6768 385.92 82.3157C385.576 81.9547 385.026 81.7741 384.269 81.7741C383.891 81.7741 383.392 81.7827 382.773 81.7999C382.155 81.8171 381.518 81.8429 380.865 81.8773C380.212 81.9117 379.618 81.9461 379.085 81.9804V78.4987C379.481 78.4643 379.945 78.43 380.478 78.3956C381.011 78.3612 381.561 78.3354 382.129 78.3182C382.696 78.301 383.229 78.2924 383.728 78.2924C385.172 78.2924 386.384 78.4987 387.364 78.9114C388.361 79.324 389.118 79.9516 389.634 80.7941C390.15 81.6194 390.407 82.6854 390.407 83.9921V92.6577H387.132ZM382.619 93.0188C381.604 93.0188 380.71 92.8382 379.937 92.4772C379.18 92.1161 378.587 91.6003 378.157 90.9298C377.727 90.242 377.512 89.4253 377.512 88.4797C377.512 87.448 377.779 86.6055 378.312 85.9522C378.845 85.2816 379.593 84.7916 380.555 84.4821C381.518 84.1554 382.627 83.9921 383.882 83.9921H386.9V86.2875H383.857C383.135 86.2875 382.576 86.468 382.18 86.8291C381.802 87.1729 381.613 87.6458 381.613 88.2475C381.613 88.8149 381.802 89.2792 382.18 89.6402C382.576 89.9841 383.135 90.156 383.857 90.156C384.321 90.156 384.734 90.0787 385.095 89.9239C385.473 89.752 385.782 89.4683 386.023 89.0728C386.264 88.6774 386.401 88.1272 386.436 87.4222L387.416 88.4539C387.33 89.4339 387.089 90.2592 386.694 90.9298C386.315 91.6003 385.782 92.1161 385.095 92.4772C384.424 92.8382 383.599 93.0188 382.619 93.0188Z" fill="white"/>
</svg>
