<svg xmlns="http://www.w3.org/2000/svg" xmlns:xlink="http://www.w3.org/1999/xlink" viewBox="0,0,256,256" width="256px" height="256px" fill-rule="nonzero"><g fill="#5127a4" fill-rule="nonzero" stroke="none" stroke-width="1" stroke-linecap="butt" stroke-linejoin="miter" stroke-miterlimit="10" stroke-dasharray="" stroke-dashoffset="0" font-family="none" font-weight="none" font-size="none" text-anchor="none" style="mix-blend-mode: normal"><g transform="scale(4,4)"><path d="M31,2c-15.98828,0 -29,13.01172 -29,29c0,15.98828 13.01172,29 29,29c15.98828,0 29,-13.01172 29,-29c0,-15.98828 -13.01172,-29 -29,-29zM31,4c14.88672,0 27,12.11328 27,27c0,14.88672 -12.11328,27 -27,27c-14.88672,0 -27,-12.11328 -27,-27c0,-14.88672 12.11328,-27 27,-27zM30.5625,8.00781c-5.89062,0.12109 -11.60156,2.5 -15.82812,6.72656c-8.96484,8.96875 -8.96484,23.55859 0,32.52734c0.19531,0.19531 0.45313,0.29297 0.70703,0.29297c0.25781,0 0.51563,-0.09766 0.71094,-0.29297c0.39063,-0.39062 0.39063,-1.02344 0,-1.41406c-8.19141,-8.1875 -8.1875,-21.50781 0,-29.69531c4.74609,-4.75 11.54688,-6.95312 18.1875,-5.88672c0.54297,0.08984 1.05469,-0.28516 1.14453,-0.82812c0.08984,-0.54687 -0.28516,-1.0625 -0.82812,-1.14844c-1.36719,-0.21875 -2.73437,-0.30859 -4.09375,-0.28125zM38.66016,9.38672c-0.39062,0.01563 -0.75,0.26172 -0.89453,0.64844c-0.19531,0.51953 0.06641,1.09375 0.58594,1.28906c0.71094,0.26563 1.41406,0.57031 2.10156,0.91406c0.14453,0.07422 0.29688,0.10938 0.44922,0.10938c0.36328,0 0.71484,-0.19922 0.89453,-0.55078c0.24609,-0.48828 0.04688,-1.09375 -0.44531,-1.34375c-0.74609,-0.375 -1.52344,-0.71484 -2.30078,-1.00781c-0.12891,-0.04687 -0.26172,-0.0625 -0.39062,-0.05859zM44.43359,12.67578c-0.25391,0.03125 -0.49609,0.16016 -0.66797,0.375c-0.33984,0.4375 -0.26562,1.0625 0.17188,1.40234c0.66797,0.52344 1.3125,1.09766 1.91016,1.69922c8.19141,8.1875 8.19141,21.50781 0,29.69531c-0.39062,0.39453 -0.39062,1.02344 0,1.41797c0.19531,0.19141 0.45313,0.29297 0.71094,0.29297c0.25391,0 0.51172,-0.10156 0.70703,-0.29297c8.96484,-8.96875 8.96484,-23.5625 0,-32.53125c-0.66016,-0.65625 -1.36328,-1.28125 -2.09375,-1.85547c-0.21875,-0.16797 -0.48828,-0.23437 -0.73828,-0.20312zM43,22c-0.25391,0 -0.51172,0.09766 -0.70703,0.29297l-14.29297,14.29297l-7.29297,-7.29297c-0.39062,-0.39062 -1.02344,-0.39062 -1.41406,0c-0.39062,0.39063 -0.39062,1.02344 0,1.41406l8,8c0.19531,0.19531 0.44922,0.29297 0.70703,0.29297c0.25781,0 0.51172,-0.09766 0.70703,-0.29297l15,-15c0.39063,-0.39062 0.39063,-1.02344 0,-1.41406c-0.19531,-0.19531 -0.45312,-0.29297 -0.70703,-0.29297zM21.375,47.39453c-0.39062,-0.04687 -0.78516,0.13281 -0.98828,0.49219l-1,1.73047c-0.27734,0.48047 -0.11328,1.08984 0.36328,1.36719c0.15625,0.08984 0.32813,0.13281 0.5,0.13281c0.34375,0 0.67969,-0.17969 0.86328,-0.5l1,-1.73047c0.27734,-0.47656 0.11719,-1.08984 -0.36328,-1.36719c-0.12109,-0.06641 -0.25,-0.10937 -0.375,-0.125zM40.625,47.39453c-0.12891,0.01563 -0.25781,0.05859 -0.375,0.125c-0.48047,0.27734 -0.64062,0.89063 -0.36328,1.37109l1,1.73047c0.18359,0.32031 0.51953,0.5 0.86328,0.5c0.17188,0 0.34375,-0.04687 0.5,-0.13672c0.48047,-0.27734 0.64063,-0.88672 0.36328,-1.36328l-1,-1.73047c-0.20703,-0.35937 -0.60156,-0.54297 -0.98828,-0.49609zM25.81641,49.34375c-0.38672,0.05469 -0.72266,0.33203 -0.83203,0.73438l-0.51562,1.93359c-0.14453,0.53125 0.17578,1.07813 0.70703,1.22266c0.08594,0.02344 0.17188,0.03125 0.26172,0.03125c0.4375,0 0.84375,-0.29297 0.96484,-0.73828l0.51953,-1.93359c0.14063,-0.53125 -0.17578,-1.08203 -0.70703,-1.22266c-0.13281,-0.03906 -0.26953,-0.04297 -0.39844,-0.02734zM36.1875,49.34375c-0.12891,-0.01562 -0.26562,-0.01172 -0.40234,0.02734c-0.53125,0.14063 -0.84766,0.69141 -0.70703,1.22266l0.51953,1.93359c0.12109,0.44531 0.52344,0.73828 0.96484,0.73828c0.08984,0 0.17578,-0.00781 0.26172,-0.03125c0.53125,-0.14453 0.85156,-0.69141 0.70703,-1.22266l-0.51562,-1.93359c-0.10937,-0.40234 -0.44531,-0.67969 -0.82812,-0.73437zM31,50c-0.55469,0 -1,0.44531 -1,1v2c0,0.55469 0.44531,1 1,1c0.55469,0 1,-0.44531 1,-1v-2c0,-0.55469 -0.44531,-1 -1,-1z"></path></g></g></svg>